<?xml version="1.0" standalone="no"?>
<!DOCTYPE svg PUBLIC "-//W3C//DTD SVG 20010904//EN"
 "http://www.w3.org/TR/2001/REC-SVG-20010904/DTD/svg10.dtd">
<svg version="1.0" xmlns="http://www.w3.org/2000/svg"
 width="1500.000000pt" height="1500.000000pt" viewBox="0 0 1500.000000 1500.000000"
 preserveAspectRatio="xMidYMid meet">
<metadata>
Created by potrace 1.14, written by Peter Selinger 2001-2017
</metadata>
<g transform="translate(0.000000,1500.000000) scale(0.100000,-0.100000)"
fill="#000000" stroke="none">
<path d="M7497 13793 c-2 -1 -58 -5 -125 -8 -130 -5 -221 -13 -234 -21 -4 -3
-32 -7 -61 -10 -28 -2 -63 -6 -77 -9 -34 -7 -86 -14 -156 -20 -33 -3 -68 -7
-80 -9 -12 -2 -45 -7 -75 -11 -177 -22 -667 -150 -849 -222 -8 -3 -19 -7 -25
-9 -20 -6 -130 -46 -150 -54 -11 -5 -56 -23 -100 -40 -44 -17 -93 -37 -110
-44 -16 -7 -92 -39 -167 -71 -76 -32 -138 -62 -138 -67 0 -4 -3 -7 -7 -6 -10
4 -206 -93 -214 -105 -3 -5 -8 -8 -10 -8 -12 4 -69 -23 -69 -32 0 -6 -3 -8 -6
-4 -3 3 -33 -11 -66 -30 -49 -28 -62 -33 -70 -22 -7 11 -8 9 -6 -6 2 -15 -12
-30 -57 -59 -155 -103 -334 -259 -385 -336 -28 -42 -118 -132 -180 -180 -25
-19 -47 -37 -50 -40 -3 -3 -33 -27 -67 -53 -34 -26 -68 -53 -75 -60 -20 -19
-151 -129 -193 -162 -21 -16 -72 -59 -114 -95 -42 -36 -112 -95 -156 -130
-115 -94 -143 -119 -304 -280 -153 -152 -252 -258 -311 -330 -19 -23 -50 -59
-67 -79 -18 -20 -33 -39 -33 -42 0 -4 -13 -22 -30 -40 -16 -19 -35 -45 -42
-59 -7 -14 -19 -29 -25 -33 -7 -4 -13 -15 -13 -22 0 -8 -4 -15 -10 -15 -5 0
-10 -5 -10 -10 0 -6 -9 -20 -20 -32 -11 -12 -26 -34 -32 -50 -7 -15 -16 -28
-20 -28 -5 0 -8 -7 -8 -15 0 -8 -4 -15 -9 -15 -5 0 -15 -15 -21 -34 -6 -19
-14 -36 -18 -38 -14 -6 -154 -250 -151 -264 0 -4 -3 -10 -8 -13 -8 -6 -103
-197 -103 -208 0 -3 -7 -19 -14 -36 -84 -183 -222 -601 -231 -702 -10 -102
-17 -141 -32 -195 -20 -68 -18 -62 -26 -80 -11 -25 -46 -172 -52 -217 -3 -23
-8 -57 -10 -75 -20 -144 -27 -520 -12 -653 8 -75 33 -190 44 -209 4 -6 8 -17
10 -25 1 -8 5 -26 9 -40 4 -14 7 -29 6 -33 -1 -3 -5 -46 -9 -95 -15 -178 0
-1103 22 -1293 3 -30 8 -75 11 -100 2 -25 7 -63 10 -85 6 -40 8 -59 20 -150
11 -94 49 -303 61 -340 4 -11 8 -26 9 -33 5 -30 161 -503 194 -587 13 -35 74
-160 79 -165 4 -3 17 -21 30 -40 49 -74 135 -116 253 -125 29 -2 53 -5 53 -5
0 -1 16 -3 35 -6 19 -2 58 -8 85 -14 54 -10 101 -16 210 -25 39 -4 84 -9 100
-11 56 -10 100 -16 113 -17 6 0 12 -3 12 -6 0 -11 55 -66 86 -88 84 -59 211
-82 309 -57 51 14 61 14 90 0 55 -27 101 -27 250 -1 61 10 91 16 130 27 22 5
48 12 57 13 10 2 45 16 79 31 98 44 188 160 207 267 12 65 6 208 -12 292 -17
77 -18 85 -8 85 5 0 13 -12 17 -27 14 -57 45 -121 88 -181 l28 -39 4 -249 c2
-137 6 -271 9 -299 2 -27 7 -81 11 -119 3 -37 7 -82 10 -100 2 -17 7 -62 10
-101 5 -70 13 -132 22 -170 5 -26 9 -56 18 -130 3 -32 8 -62 10 -65 2 -3 6
-36 9 -75 4 -38 16 -133 27 -210 12 -77 23 -156 26 -175 4 -30 32 -196 48
-285 29 -153 127 -465 147 -465 4 0 8 -7 8 -16 0 -19 98 -169 160 -243 25 -31
51 -64 56 -73 5 -9 36 -45 69 -80 33 -35 94 -102 135 -148 254 -285 497 -533
618 -628 153 -122 371 -231 511 -257 54 -10 71 -14 79 -19 4 -2 28 -7 52 -11
25 -3 52 -8 61 -11 20 -6 50 -10 139 -18 36 -4 81 -9 100 -11 19 -2 69 -7 110
-10 41 -4 98 -9 125 -11 28 -3 77 -7 110 -9 33 -2 121 -7 195 -12 230 -14 752
-6 830 13 14 3 32 6 40 6 59 -1 315 69 415 113 17 7 55 23 85 35 109 45 319
154 313 163 -3 6 -2 7 4 4 5 -3 35 10 67 29 31 18 61 34 67 34 5 0 9 5 9 10 0
6 5 10 11 10 12 0 103 60 107 72 2 4 10 8 17 8 7 0 15 7 19 15 3 8 12 15 21
15 19 0 355 335 355 354 0 8 4 16 9 18 23 8 199 241 287 378 38 59 108 201
119 243 2 4 3 8 5 10 1 1 3 9 5 17 2 8 13 50 25 93 11 43 18 82 15 87 -4 6 -2
10 3 10 5 0 9 6 9 13 0 11 8 59 17 102 19 95 30 212 41 420 8 168 16 257 31
385 23 200 32 269 40 330 3 19 7 51 9 70 6 56 45 280 60 345 16 71 27 136 31
185 1 19 3 35 5 35 1 0 3 9 4 20 2 11 6 38 10 60 12 75 26 170 31 205 2 19 15
58 29 85 29 60 113 168 124 161 4 -3 9 -35 10 -70 1 -36 4 -76 7 -88 2 -13 7
-43 10 -67 5 -41 29 -118 59 -186 7 -16 16 -40 20 -52 37 -123 184 -246 326
-271 46 -9 113 -9 129 -2 3 1 13 2 22 1 10 -1 30 4 45 12 122 63 113 60 156
47 57 -17 143 -15 202 5 28 10 52 21 55 24 13 19 103 51 173 61 43 6 88 13
100 15 12 2 45 6 72 10 86 12 99 14 125 20 14 3 36 8 50 10 129 20 292 64 284
77 -3 4 2 5 10 2 9 -4 41 21 89 68 41 40 98 92 126 116 83 70 137 198 251 585
33 115 58 213 55 218 -4 5 -2 9 3 9 8 0 23 43 37 110 2 8 8 37 14 63 6 27 9
53 6 58 -4 5 -2 9 3 9 5 0 13 21 16 48 10 61 8 54 50 221 20 78 39 164 42 190
3 25 8 48 9 51 2 3 7 46 11 95 14 163 8 504 -10 610 -3 17 -13 93 -21 170 -22
207 -25 225 -42 285 -17 62 -22 209 -9 285 5 28 10 59 11 70 0 11 5 45 9 75
30 226 39 629 15 740 -7 37 -17 104 -24 180 -5 44 -12 103 -19 151 -3 13 -7
47 -11 74 -7 56 -51 229 -64 254 -5 9 -9 18 -8 21 2 8 -65 204 -73 215 -4 6
-11 21 -15 35 -44 151 -372 773 -455 863 -11 11 -20 24 -20 27 0 4 -8 17 -17
29 -10 11 -43 59 -73 105 -30 47 -58 82 -62 80 -5 -3 -8 1 -8 8 0 7 -25 45
-56 83 -30 39 -67 86 -82 104 -15 19 -36 45 -47 57 -11 12 -45 50 -75 84 -162
185 -402 408 -637 594 -66 53 -126 96 -132 96 -6 0 -11 4 -11 9 0 9 -54 47
-114 80 -18 11 -44 25 -57 33 -76 42 -324 272 -394 364 -33 43 -66 76 -114
114 -17 14 -37 30 -44 35 -43 35 -99 76 -142 105 -27 19 -91 64 -141 102 -51
37 -97 68 -103 68 -6 0 -11 4 -11 8 0 5 -12 15 -27 23 -16 8 -30 16 -33 19 -6
7 -92 55 -209 118 -47 25 -103 56 -123 69 -21 13 -40 23 -43 23 -2 0 -28 15
-58 34 -125 80 -350 175 -752 318 -349 123 -438 149 -605 173 -19 2 -46 7 -60
10 -114 24 -186 29 -448 30 -160 1 -294 0 -295 -2z m-2868 -1792 c33 -17 63
-31 84 -36 4 -2 8 -3 10 -5 10 -8 64 -9 92 -1 19 5 35 8 35 7 0 -1 -47 -50
-105 -109 -58 -59 -105 -109 -105 -111 0 -3 -10 -15 -22 -28 -13 -13 -36 -41
-53 -62 -16 -21 -35 -44 -41 -50 -5 -6 -40 -51 -77 -101 -37 -49 -71 -95 -77
-102 -5 -7 -10 -16 -10 -22 0 -5 -4 -11 -8 -13 -4 -1 -32 -39 -62 -83 -30 -44
-58 -84 -63 -90 -4 -5 -21 -28 -38 -50 -56 -72 -269 -546 -269 -598 0 -7 -3
-17 -7 -21 -4 -3 -8 -12 -9 -19 -1 -7 -21 -66 -44 -132 -23 -66 -43 -124 -44
-130 -2 -5 -6 -17 -9 -25 -4 -8 -9 -26 -11 -40 -3 -14 -8 -36 -11 -50 -3 -14
-8 -40 -11 -59 -3 -18 -7 -43 -10 -54 -6 -31 -15 -94 -19 -130 -1 -18 -6 -57
-10 -87 -3 -30 -8 -77 -10 -105 -2 -27 -4 -50 -5 -50 -1 0 -3 -20 -6 -45 -2
-25 -6 -59 -9 -76 -5 -36 -13 -113 -20 -204 -3 -36 -8 -77 -12 -92 l-8 -28
-38 35 c-44 41 -91 62 -150 70 -140 18 -189 11 -312 -46 -35 -16 -68 -29 -74
-29 -6 0 -34 -11 -63 -23 -29 -13 -69 -30 -88 -37 -76 -29 -174 -95 -164 -111
2 -4 0 -10 -6 -14 -5 -3 -10 -15 -10 -25 0 -15 -20 -29 -77 -56 -43 -20 -121
-57 -173 -82 -52 -26 -99 -47 -105 -47 -5 0 -15 19 -21 42 -10 35 -10 48 1 70
12 25 61 181 70 226 2 10 7 27 10 37 7 21 14 52 22 97 3 18 23 50 44 73 22 23
37 45 34 51 -4 5 -1 9 6 9 6 0 9 8 6 20 -3 11 -1 20 3 20 17 0 2 68 -24 113
l-26 45 25 58 c14 33 43 93 65 134 21 41 54 104 72 140 18 36 36 67 41 68 4 2
7 8 7 12 0 5 41 77 90 161 50 83 90 155 90 159 0 5 3 10 8 12 4 2 31 39 61 83
30 44 57 82 60 85 20 17 81 100 81 109 0 6 4 11 9 11 8 0 101 113 103 127 1 4
12 16 25 26 13 10 23 25 23 33 0 8 4 14 9 14 4 0 20 17 34 38 40 60 86 111
194 216 56 55 100 103 97 108 -3 5 -2 7 3 6 12 -4 118 103 115 116 -2 6 0 8 4
4 9 -10 35 12 28 23 -3 5 -1 8 4 7 5 -2 72 57 148 129 76 73 175 160 219 193
44 34 86 68 93 77 6 9 12 13 12 9 0 -6 83 47 100 64 3 3 25 19 50 35 25 17 50
34 55 38 36 29 121 86 129 87 4 0 25 -9 45 -19z m5823 -153 c69 -43 131 -78
137 -78 6 0 11 -4 11 -9 0 -10 39 -27 53 -23 5 1 6 -1 3 -6 -2 -4 12 -17 32
-28 20 -10 42 -22 47 -27 34 -26 85 -55 85 -49 0 4 4 2 8 -4 7 -11 100 -74
108 -74 3 0 14 -8 25 -18 10 -11 32 -25 47 -33 15 -8 29 -16 32 -20 3 -3 67
-51 143 -108 76 -56 148 -110 160 -119 35 -27 246 -241 327 -332 41 -46 85
-93 96 -104 12 -12 55 -66 95 -121 41 -55 78 -104 82 -110 25 -30 147 -206
147 -211 0 -3 13 -24 28 -47 15 -23 43 -71 62 -107 18 -36 41 -78 51 -95 36
-62 189 -381 189 -395 0 -4 7 -13 14 -20 13 -10 11 -20 -16 -70 -46 -88 -46
-142 0 -227 29 -56 71 -172 87 -243 1 -8 17 -61 35 -118 23 -73 32 -125 34
-182 2 -81 -1 -87 -32 -71 -9 5 -63 28 -119 51 -155 64 -188 88 -223 164 -36
80 -85 113 -192 130 -63 10 -73 14 -97 46 -82 110 -160 155 -271 155 -92 0
-107 -4 -195 -49 -38 -19 -70 -34 -71 -33 -1 1 -5 38 -8 82 -4 44 -8 98 -11
120 -2 22 -7 68 -10 103 -2 34 -7 73 -10 85 -3 12 -7 33 -9 47 -6 31 -45 221
-56 275 -23 104 -88 326 -99 335 -3 3 -7 12 -8 20 -7 38 -90 229 -98 223 -4
-5 -5 -2 -1 5 4 7 3 18 -2 25 -6 7 -24 37 -40 67 -46 87 -92 170 -128 233 -19
32 -34 62 -34 67 0 5 -6 15 -13 22 -7 7 -30 48 -51 91 -21 42 -43 77 -49 77
-5 0 -7 3 -4 6 7 7 -75 167 -99 195 -8 8 -14 21 -14 28 0 6 -7 14 -15 17 -8 4
-13 10 -10 14 3 5 -2 15 -10 23 -8 9 -15 18 -15 21 0 3 -16 30 -34 59 -19 30
-47 76 -62 103 -15 27 -52 87 -82 133 -48 74 -112 186 -112 197 0 9 44 -15
162 -88z"/>
</g>
</svg>
